<svg width="1080" height="1080" viewBox="0 0 1080 1080" fill="none" xmlns="http://www.w3.org/2000/svg">
<path d="M532.321 61.6325C530.26 62.9338 527.441 66.4038 525.923 69.4401C523.645 73.9946 523.212 76.3803 523.212 84.4049C523.212 91.345 522.886 93.5138 522.127 92.1041C519.525 87.5496 513.127 81.3685 509.114 79.6335C502.716 76.7056 496.102 76.9225 492.848 80.1757C486.559 86.5737 487.86 93.2969 497.62 104.032C505.753 112.925 508.572 117.804 509.44 124.636L509.982 129.082L505.102 122.576C499.789 115.31 494.367 110.647 486.884 106.743C480.703 103.49 465.413 102.948 462.377 105.876C460.75 107.503 460.967 108.045 464.763 112.925C470.51 120.515 472.679 126.154 475.064 139.275C477.45 152.505 479.727 160.204 482.764 165.084C486.017 170.506 494.15 177.013 502.933 181.459C510.416 185.146 512.042 185.471 522.127 185.796L533.297 186.23L534.056 198.592C534.489 205.424 534.489 214.966 534.056 219.738L533.297 228.413L528.308 221.039C525.597 217.027 519.416 209.761 514.645 204.882C507.705 197.941 504.126 195.23 497.186 191.977C492.415 189.808 485.908 186.772 482.655 185.146C475.064 181.567 468.883 176.037 465.738 169.855C460.642 159.771 451.641 154.24 439.496 153.698C425.074 152.939 416.724 159.662 417.7 171.265C418.35 178.748 421.387 182.868 428.544 186.013C433.315 188.073 437.11 188.724 451.099 189.375C469.425 190.242 474.197 191.435 488.728 198.592C496.21 202.279 508.572 212.039 503.692 210.412C498.379 208.569 488.186 207.376 484.282 208.135C479.077 209.111 472.787 214.966 472.787 218.87C472.787 222.449 476.691 227.112 481.029 228.955C483.848 230.148 488.186 230.365 500.222 229.823C513.777 229.172 516.163 229.281 519.742 231.016C527.875 234.811 533.405 246.522 533.622 260.186C533.839 271.572 534.598 274.175 538.285 275.476C543.165 277.103 545.008 273.958 545.767 262.138C546.96 246.414 552.924 234.377 561.274 230.907C565.178 229.281 574.504 229.064 585.022 230.365C594.24 231.558 600.638 230.148 604.325 226.136C610.506 219.304 606.06 210.846 595.541 209.219C590.987 208.569 581.552 209.761 576.022 211.713C571.25 213.34 582.203 204.339 589.685 200.436C604.867 192.411 612.241 190.351 630.35 189.266C644.881 188.399 647.267 187.965 652.689 185.254C660.063 181.567 663.641 176.687 663.641 170.289C663.641 160.855 654.641 153.481 643.038 153.481C630.242 153.481 621.892 158.252 613.976 169.964C607.578 179.398 602.915 182.868 586.215 191.001C571.793 197.833 565.286 203.255 554.334 217.352L547.068 226.57L546.743 210.954C546.526 202.279 546.743 193.17 547.068 190.568L547.719 186.013H556.286C566.804 186.013 576.347 183.194 585.131 177.555C596.842 169.964 601.397 162.265 605.084 143.721C608.12 128.323 611.156 119.865 616.145 113.358C618.422 110.322 620.265 107.611 620.265 107.286C620.265 105.876 612.241 103.599 607.578 103.599C601.288 103.707 591.637 107.394 585.565 112.274C583.179 114.226 579.058 118.78 576.564 122.467L572.01 129.082L571.684 125.612C571.25 120.732 575.913 112.382 583.613 104.141C593.372 93.6222 594.674 87.5496 588.384 81.2601C582.203 75.079 573.094 76.7056 564.202 85.7061L558.455 91.345V85.7061C558.455 76.8141 554.768 66.5123 550.322 62.5C545.333 58.1624 537.959 57.8371 532.321 61.6325ZM546.201 110.322C548.261 112.165 548.695 113.792 548.695 118.78C548.695 125.612 549.888 127.455 554.334 127.455C562.25 127.455 565.612 132.335 564.636 142.42C563.443 155.433 555.527 169.205 546.418 173.976C539.803 177.555 536.658 176.579 529.176 168.88C512.368 151.529 512.042 128.648 528.417 126.371L532.971 125.829L532.646 119.865C532.321 114.985 532.754 113.25 534.598 110.864C537.526 107.177 542.622 106.96 546.201 110.322Z" fill="#D12020"/>
<path d="M535.682 131.034C530.368 132.878 527.007 138.3 527.007 145.348C527.007 156.626 534.706 171.916 540.453 171.916C543.707 171.916 546.851 168.446 550.213 161.18C554.117 152.505 554.876 145.131 552.165 139.276C548.586 131.143 543.164 128.432 535.682 131.034Z" fill="#FFD000"/>
<path d="M297.656 195.881C272.281 198.592 242.569 206.942 221.098 217.244C158.745 247.282 113.634 304.972 96.9342 375.783C88.6927 410.918 87.7168 456.029 94.4401 493.332C104.742 550.913 132.828 613.049 173.493 669.113C188.674 689.933 208.302 714.007 220.447 726.803L230.098 736.779L224.676 746.322C214.917 763.347 193.663 811.169 194.313 814.639C194.964 817.784 200.06 820.495 207.434 821.471C216.326 822.772 219.037 824.399 223.267 831.122C225.219 834.05 228.58 837.303 231.183 838.93C235.303 841.207 237.255 841.532 246.69 841.641C252.654 841.641 258.184 841.749 258.835 841.858C259.594 841.966 262.956 844.569 266.317 847.605C275.209 855.629 277.812 856.497 293.319 856.063L306.332 855.629L306.223 858.883C306.006 865.064 300.259 901.174 297.656 912.777C296.247 919.067 293.102 929.26 290.716 935.224C285.945 947.044 285.186 953.334 287.788 959.623C290.716 966.563 299.608 970.901 303.621 967.323C306.332 964.828 308.175 966.238 310.127 972.094C314.139 984.348 324.333 989.878 345.37 991.288C353.394 991.938 355.889 991.721 358.708 990.203C361.636 988.685 362.178 987.818 362.178 984.348C362.178 979.034 361.527 978.275 353.394 972.961C342.334 965.696 334.418 950.406 335.393 938.044C336.153 927.308 353.394 879.812 360.985 867.341C363.046 864.088 363.371 863.979 367.058 864.955C369.769 865.714 373.456 865.714 378.769 864.847C386.469 863.654 386.794 863.654 395.252 867.124C402.843 870.16 405.337 870.703 414.771 870.919C438.194 871.353 436.134 871.136 435.7 873.739C435.375 876.233 435.05 876.233 420.736 876.233C412.711 876.233 401.867 875.799 396.77 875.365C388.963 874.606 387.336 874.823 386.794 876.125C386.143 877.643 390.806 912.018 394.276 931.537C395.578 938.803 395.794 944.008 395.252 951.599C394.819 957.238 394.385 963.202 394.385 964.828C394.385 970.576 397.204 984.348 398.722 985.866C400.457 987.492 419.001 988.035 421.495 986.516C422.145 986.083 422.904 984.131 423.121 982.179L423.447 978.6L432.122 982.938C443.291 988.685 449.798 989.878 465.196 989.336C475.281 989.01 478.534 988.468 481.57 986.733C489.487 982.07 486.125 975.672 471.811 968.515C456.195 960.599 444.592 950.623 441.231 942.056C440.255 939.562 441.122 929.911 442.315 929.911C443.291 929.911 468.232 953.442 504.993 989.227C527.224 1010.81 538.393 1021 540.02 1021C541.538 1021 547.936 1015.58 558.563 1005.28C567.455 996.601 576.564 988.36 578.841 986.95C581.01 985.54 586.866 983.372 591.637 982.179C599.987 980.118 607.903 976.648 613.542 972.636C615.819 970.901 615.927 971.009 615.927 973.178C615.927 974.371 616.903 976.431 618.205 977.733C620.265 979.793 621.458 980.01 630.567 979.576C636.206 979.468 641.302 978.709 641.845 978.166C642.495 977.516 644.013 972.094 645.315 966.021C647.592 955.719 647.592 954.201 646.291 945.851C645.532 940.755 645.206 935.55 645.532 934.14C646.616 929.911 651.929 924.272 667.436 910.934C675.461 903.994 689.233 891.74 698.016 883.715C709.077 873.414 714.066 869.401 714.608 870.486C715.041 871.245 715.801 874.281 716.234 877.317C716.56 880.245 719.162 894.776 721.765 909.632C727.62 942.273 727.729 942.164 716.885 952.683C712.764 956.695 705.607 962.009 700.185 965.154C685.546 973.504 682.401 975.998 681.534 979.685C679.69 987.926 683.377 989.878 702.137 990.42C718.945 990.854 727.946 989.227 738.031 983.588C745.947 979.142 747.248 979.034 749.2 982.07C750.501 984.239 751.26 984.348 761.02 983.914C773.382 983.263 774.25 982.504 776.852 971.118C779.021 961.792 779.021 957.888 776.961 947.803C775.551 941.297 775.442 937.827 776.418 928.609C778.153 912.127 779.021 853.244 777.72 839.797C776.961 831.881 775.876 826.893 774.25 823.748C773.057 821.146 772.081 818.326 772.298 817.242C772.515 816.266 777.286 811.278 782.925 806.289C817.734 775.275 871.086 717.911 896.245 684.294C948.838 613.809 978.767 548.202 988.635 481.512C991.021 465.246 991.346 421.762 989.069 406.146C984.515 372.964 975.622 344.227 961.959 317.442C922.27 240.233 846.362 194.688 757.225 194.688C700.294 194.688 651.821 210.521 607.361 243.812C586.432 259.427 557.045 291.851 544.032 313.647C542.188 316.792 540.345 319.394 540.02 319.394C539.694 319.394 537.092 315.599 534.055 311.044C519.091 288.055 497.077 263.006 479.293 248.583C446.653 222.232 408.59 205.532 363.805 197.833C348.623 195.231 313.272 194.146 297.656 195.881ZM773.816 221.907C829.012 227.329 879.328 252.704 911.426 291.308C950.031 337.612 968.357 402.459 961.308 468.174C951.224 563.276 896.678 656.859 790.624 760.961C778.045 773.432 767.309 783.517 766.767 783.517C765.141 783.517 764.49 772.565 765.141 755.865C765.466 746.973 765.9 738.514 766.225 737.213C766.55 735.37 768.611 733.851 773.491 731.683C781.732 727.887 788.347 720.73 791.708 712.055C793.552 707.392 794.203 702.729 794.636 691.885L795.07 677.788L800.709 672.8C810.36 664.016 821.638 637.232 826.518 611.206C829.662 594.506 829.879 562.083 826.951 541.154C821.638 502.332 812.637 472.62 801.251 455.595C790.733 439.979 781.949 433.798 753.212 421.436C730.223 411.568 723.391 405.496 722.524 393.892C721.982 387.061 721.982 387.061 727.187 380.121C734.018 371.12 739.115 360.71 741.609 350.625C743.453 343.143 743.886 342.492 748.875 339.239C756.682 334.034 759.068 330.889 759.068 325.792C759.068 321.455 758.96 321.346 752.345 318.418C740.308 312.996 691.402 298.357 662.557 291.634C636.748 285.561 629.266 286.754 628.181 296.622C627.53 303.237 630.567 308.008 637.399 310.936C640.218 312.129 642.712 313.322 642.929 313.539C643.037 313.647 642.495 316.141 641.628 319.069C640.652 321.888 639.567 326.66 639.134 329.696C638.808 332.624 636.965 337.829 635.121 341.082C628.29 353.444 626.88 356.914 626.771 360.71C626.771 365.047 628.506 367.108 634.471 369.602C637.941 371.012 638.591 371.879 639.242 376C639.676 378.494 639.893 384.892 639.893 389.989C639.676 398.013 640.001 399.64 642.061 402.242C645.206 406.255 650.411 408.423 655.4 407.556C659.954 406.797 662.557 408.532 662.557 412.219C662.557 416.556 658.219 419.81 648.459 422.954C635.555 427.075 624.819 432.172 617.771 437.594C602.264 449.197 590.661 470.343 576.998 511.875C572.118 526.623 566.696 541.804 564.961 545.6C559.213 558.396 533.838 598.952 527.549 605.567C525.38 607.736 512.693 605.133 508.464 601.663C506.728 600.145 501.632 593.747 497.077 587.458C492.523 581.06 486.45 573.035 483.522 569.674C477.775 563.059 477.45 562.3 479.727 562.3C482.546 562.3 487.86 556.878 488.511 553.191C489.595 547.66 486.776 542.564 479.944 537.358C476.582 534.864 473.871 532.045 473.871 531.286C473.871 530.418 474.956 525.972 476.148 521.418C479.293 510.032 479.293 495.067 476.148 485.307C469.1 463.294 451.966 447.57 424.531 438.028C416.723 435.317 411.952 432.497 403.385 425.774C399.156 422.521 401.65 421.002 408.157 422.954C416.29 425.448 425.073 425.123 429.519 422.087C434.833 418.508 438.086 413.195 438.086 407.881C438.086 404.845 438.737 402.785 440.146 401.7C441.231 400.616 442.424 397.796 442.857 394.652C443.508 389.446 443.616 389.23 448.93 387.386C453.701 385.651 454.352 385.109 454.352 382.398C454.352 380.663 452.725 374.699 450.665 369.168C447.737 360.818 446.87 356.264 445.894 344.01C444.809 331.756 444.05 327.744 441.773 322.539C440.146 319.069 438.194 315.599 437.435 314.948C436.568 314.189 435.917 311.695 435.917 308.984C435.917 302.911 432.122 298.465 421.169 291.634C404.036 281.007 382.673 276.777 366.516 280.79C335.719 288.489 315.983 315.599 322.489 341.082C324.441 348.673 333.55 365.373 334.309 362.77C334.526 361.903 335.502 357.023 336.478 352.035C338.43 341.624 344.828 327.31 350.25 321.238C354.587 316.25 356.322 316.033 353.611 320.696C347.972 330.347 341.575 355.505 341.575 367.867C341.575 371.879 341.249 372.53 338.864 373.18C337.345 373.506 335.502 373.614 334.634 373.289C331.923 372.205 323.248 360.385 319.019 352.035C316.85 347.589 314.248 343.468 313.272 342.926C310.561 341.191 302.102 343.143 296.68 346.613C290.499 350.733 283.559 360.927 281.824 368.626C280.631 374.265 280.74 374.807 283.342 379.362C287.029 385.543 292.777 390.639 300.367 394.109C305.356 396.387 308.392 396.929 319.344 397.471L332.249 398.013L319.344 401.7C304.163 406.038 291.909 411.893 284.86 418.075C280.198 422.195 271.089 434.449 271.089 436.618C271.089 438.136 282.475 437.811 293.319 435.967C313.922 432.606 330.08 426.424 335.936 419.81C338.104 417.315 339.623 413.954 340.49 409.725C342.117 401.483 342.767 400.399 346.78 399.206C351.876 397.796 353.503 399.748 353.503 406.905C353.503 410.158 353.069 413.629 352.419 414.713C351.876 415.797 346.021 420.677 339.514 425.557C333.008 430.437 327.369 435.1 327.044 435.967C326.718 436.943 325.092 437.594 323.357 437.594C318.152 437.594 300.042 442.582 293.753 445.727C275.968 454.727 257.642 473.596 250.485 490.187C245.063 502.875 245.28 518.273 251.027 530.744C252.437 533.78 253.413 536.925 253.088 537.684C252.871 538.443 249.618 541.696 246.039 544.841C239.641 550.48 235.303 556.986 235.303 560.998C235.303 563.492 238.014 566.095 242.135 567.613C244.955 568.698 245.063 569.023 245.063 577.156C245.063 587.675 247.232 592.663 254.931 600.904C261.546 607.844 270.763 614.784 284.86 623.46L294.837 629.641L286.596 640.159C276.619 652.847 266.1 668.679 252.545 691.777L242.46 709.019L234.436 700.452C223.917 689.283 202.121 662.064 191.494 646.991C152.998 592.121 127.84 532.37 119.707 476.09C117.104 458.197 117.104 422.195 119.598 405.062C130.659 332.407 169.372 275.259 227.713 245.221C259.052 229.172 289.09 221.907 324.441 221.798C400.024 221.69 467.799 259.319 510.307 324.816C513.235 329.262 520.5 342.492 526.465 354.095C536.224 373.072 537.634 375.241 540.02 375.241C542.405 375.241 543.49 373.831 547.936 364.939C568.648 324.491 581.877 305.514 606.276 281.983C651.713 238.173 713.523 215.943 773.816 221.907ZM421.603 308.117L424.097 309.852L418.892 313.647C416.073 315.816 406.422 324.708 397.421 333.491C382.999 347.48 369.01 359.517 367.058 359.517C365.865 359.517 387.878 334.251 396.011 326.226C404.253 318.201 417.591 306.49 418.567 306.381C418.892 306.381 420.302 307.141 421.603 308.117ZM668.521 319.394C676.871 321.238 684.028 323.081 684.461 323.515C685.004 324.057 685.871 328.503 686.522 333.491C687.932 344.01 690.751 353.011 693.137 354.42C695.739 356.155 699.751 354.42 702.137 350.517C703.872 347.806 705.173 346.938 708.318 346.721C713.523 346.287 716.126 349.866 716.126 357.457C716.126 364.614 713.306 368.301 706.366 370.253C703.438 371.012 700.727 372.313 700.294 372.964C697.8 376.651 701.27 380.121 707.559 380.121H712.222L712.981 390.097C714.066 405.496 713.632 408.423 709.511 410.809C702.029 415.147 678.172 421.328 675.461 419.593C673.726 418.508 669.93 410.267 670.581 408.857C670.798 408.098 673.509 406.688 676.437 405.712C682.184 403.761 685.98 400.507 684.787 398.664C683.811 397.037 679.256 397.254 672.967 399.098C661.797 402.459 647.592 399.965 648.134 394.76C648.351 393.567 648.785 389.88 649.11 386.41C649.761 380.554 649.978 380.229 653.448 379.578C657.677 378.819 658.653 377.735 657.677 374.699C657.135 372.964 656.05 372.53 651.821 372.53C649.002 372.53 646.291 372.205 645.965 371.879C645.532 371.445 646.291 369.71 647.592 367.867C649.869 364.722 649.869 364.614 647.917 363.204C646.833 362.336 645.206 361.686 644.447 361.686C643.58 361.686 641.194 360.927 639.025 360.059C635.989 358.758 635.447 358.107 636.423 357.023C638.808 354.095 644.122 339.673 646.833 328.286C650.086 315.274 650.194 314.948 652.038 315.599C652.797 315.816 660.171 317.551 668.521 319.394ZM435.809 332.516C436.568 335.01 438.086 344.335 439.17 353.119C440.58 364.072 441.99 370.686 443.508 373.723C444.809 376.108 445.677 378.277 445.46 378.494C445.243 378.711 442.207 380.121 438.737 381.639L432.339 384.458L434.616 386.952C438.737 391.398 437.761 393.025 430.821 393.35C425.399 393.676 424.531 394.001 424.206 395.953C423.989 397.688 424.748 398.664 427.134 399.64C428.977 400.399 430.495 401.592 430.495 402.242C430.387 405.062 426.158 412.436 423.338 414.713C419.434 417.749 416.723 417.315 404.687 411.568C399.698 409.182 394.927 407.231 394.059 407.231C391.132 407.231 390.915 410.701 393.734 412.761L396.337 414.713L394.385 422.087C393.3 426.099 391.999 429.895 391.457 430.437C389.83 432.063 377.685 428.919 368.468 424.364C360.335 420.46 359.901 420.026 360.443 417.207C360.66 415.58 361.744 408.423 362.829 401.266L364.564 388.254L368.576 392.266C373.239 396.82 377.468 398.23 381.264 396.495C385.818 394.435 384.625 390.748 378.553 388.037C374.757 386.41 372.371 384.458 370.42 381.313C368.034 377.626 366.733 373.614 367.925 373.614C368.034 373.614 373.564 371.771 380.179 369.494C399.156 362.879 418.892 348.565 428.869 334.034C431.146 330.78 433.315 328.069 433.748 328.069C434.182 328.069 435.05 330.13 435.809 332.516ZM319.127 371.012C323.031 372.964 329.646 378.928 329.646 380.554C329.646 381.097 328.779 380.771 327.694 379.795C325.2 377.518 312.296 371.662 307.091 370.469C303.187 369.494 303.295 369.494 309.368 369.385C313.163 369.277 317.067 369.927 319.127 371.012ZM713.523 422.954C713.523 423.93 711.246 426.208 708.535 428.159C705.716 430.003 702.462 432.389 701.161 433.365L698.884 435.208L703.547 448.763C709.403 465.571 710.379 473.813 707.234 479.018C705.933 480.97 703.113 484.006 700.944 485.741L696.932 488.886L697.583 498.754C698.016 504.176 699.751 530.527 701.486 557.42C703.33 584.204 705.065 609.037 705.499 612.507L706.149 618.688L711.246 618.146C713.957 617.929 722.09 617.387 729.247 617.062C736.404 616.736 744.32 616.194 746.814 615.869C750.501 615.327 751.586 615.544 752.128 617.062C752.562 618.038 752.128 619.556 751.369 620.315C749.634 622.158 727.187 625.954 712.981 626.93C704.306 627.58 702.896 627.364 700.619 625.52C697.691 623.134 697.366 620.966 694.546 578.566C693.679 565.119 692.378 548.745 691.835 542.238C690.751 529.117 688.04 489.211 688.04 485.958C688.04 484.331 689.233 483.464 692.92 482.596C700.077 480.753 702.354 479.235 703.655 475.439C705.39 470.343 705.173 466.981 702.246 458.631C698.342 447.462 695.414 441.172 691.618 435.75C688.148 431.087 688.148 430.87 690.209 429.352C691.293 428.485 693.245 427.834 694.438 427.834C695.739 427.834 699.643 426.424 703.222 424.689C710.595 421.111 713.523 420.569 713.523 422.954ZM668.195 426.424C671.015 428.919 670.581 430.22 666.027 433.365C663.099 435.425 660.171 439.654 654.749 449.631C650.737 457.004 646.941 464.704 646.182 466.656C643.796 473.596 646.833 478.584 654.315 479.994C657.243 480.536 660.279 481.512 661.038 482.163C663.099 483.789 662.99 495.392 660.93 506.236C658.653 518.273 651.17 573.035 648.459 598.085C647.158 609.688 645.64 620.315 645.098 621.616C644.23 623.893 643.58 624.11 635.23 624.002C623.301 623.893 620.916 623.134 620.482 619.447C620.048 616.194 620.048 616.194 631.651 616.086L638.158 615.977L643.254 576.397C646.074 554.6 649.652 525.647 651.17 511.875C653.881 488.56 653.99 486.825 652.255 485.849C642.061 479.885 639.35 475.765 640.218 467.632C640.869 461.993 646.724 448.655 653.773 437.052C661.472 424.581 664.075 422.629 668.195 426.424ZM358.816 431.63C359.467 431.304 360.443 431.955 361.094 433.148C361.744 434.449 362.829 435.1 363.805 434.774C364.672 434.341 365.757 434.883 366.082 435.859C366.407 436.835 367.383 437.594 368.251 437.594C369.118 437.594 370.636 438.028 371.721 438.57C377.468 441.498 379.528 442.04 381.48 441.498C382.673 441.064 383.975 441.172 384.3 441.714C385.384 443.558 399.156 441.823 401.976 439.546C403.927 437.919 409.241 440.955 409.675 443.883C410.217 447.57 403.927 449.847 392.324 450.173C387.119 450.281 382.348 450.715 381.697 451.149C381.047 451.582 379.637 451.149 378.553 450.173C376.167 448.004 374.757 448.004 373.022 450.064C371.504 451.908 372.914 456.354 376.492 460.908C378.227 463.186 379.528 463.619 383.866 463.619C389.722 463.619 390.589 464.378 391.999 471.21C394.276 481.946 401.976 491.814 408.157 491.814H411.084L408.265 487.151C399.915 473.704 397.096 464.378 401 463.402C406.313 461.993 409.241 465.246 414.988 479.452C419.543 490.946 420.193 491.705 422.579 489.32C424.206 487.801 424.206 486.825 423.013 481.837C422.362 478.692 420.193 472.837 418.35 468.824C416.506 464.812 415.314 460.8 415.639 459.824C418.35 452.884 429.736 469.584 431.254 482.813C432.013 488.344 428.218 496.802 424.423 498.537C423.013 499.188 421.82 500.38 421.82 501.031C421.82 502.332 425.182 518.165 425.507 518.598C425.615 518.707 428.218 518.165 431.363 517.405C434.508 516.538 437.002 516.213 437.002 516.646C437.002 517.948 431.471 523.261 428.435 524.888C425.832 526.189 425.182 527.274 424.856 531.503L424.531 536.491L428.652 535.84C432.447 535.19 432.664 535.298 431.58 537.25C430.929 538.443 428.76 540.72 426.7 542.238C423.989 544.407 422.579 546.684 421.278 550.913C420.41 554.058 419.651 556.986 419.651 557.42C419.651 557.854 421.603 557.962 423.989 557.528C427.676 556.986 428.326 557.094 428.326 558.721C428.326 559.805 427.893 561.215 427.459 561.866C426.158 563.818 421.82 565.77 420.085 565.119C419.217 564.794 418.025 565.77 416.94 567.613C414.229 573.035 410.217 572.818 411.518 567.505C412.06 565.336 411.627 564.685 408.482 563.601C406.53 562.842 403.711 561.107 402.409 559.697L399.915 556.986L406.747 557.203L413.47 557.42L414.88 551.998C416.832 544.949 416.832 545.275 413.47 544.624C411.735 544.299 408.482 542.347 406.096 540.178L401.759 536.382L409.458 536.274C417.699 536.274 418.567 535.732 418.567 530.527C418.567 528.575 417.049 527.599 410.109 524.888L401.759 521.743L409.892 520.55C418.025 519.466 418.025 519.466 417.699 516.321C417.482 514.586 416.506 510.682 415.531 507.754C413.795 502.549 413.47 502.332 407.723 500.489C399.156 497.886 388.637 492.031 385.059 487.91C383.324 485.958 379.095 479.126 375.625 472.62C367.383 457.113 363.154 451.366 355.78 446.052C352.419 443.558 348.406 440.413 346.78 438.895L343.852 436.292L348.948 431.955L353.937 427.617L355.889 430.003C356.865 431.304 358.274 432.063 358.816 431.63ZM692.92 456.137C695.414 463.945 697.257 470.451 697.04 470.668C695.414 472.078 689.341 474.463 688.799 473.921C687.932 473.054 687.064 441.931 687.932 441.931C688.257 441.931 690.534 448.329 692.92 456.137ZM665.701 457.764C663.099 471.319 661.581 473.596 656.918 471.102C655.508 470.451 654.315 469.692 654.098 469.584C653.556 469.15 661.038 453.209 664.4 447.353C666.027 444.751 667.436 443.124 667.762 443.883C667.979 444.642 667.111 450.823 665.701 457.764ZM781.949 449.414C793.01 456.788 801.251 472.62 807.866 499.404C819.903 547.118 820.553 600.687 809.601 634.087C806.131 644.605 797.456 661.956 795.287 662.823C794.419 663.149 788.672 662.173 782.6 660.655C776.527 659.136 769.261 657.618 766.55 657.184C758.201 655.992 758.417 657.076 762.43 633.761C765.683 614.568 766.008 610.772 766.008 590.494C766.008 565.878 765.358 561.432 755.49 524.346C751.26 508.297 751.152 506.778 751.044 490.729C750.935 476.198 751.26 472.837 753.321 466.33C756.14 457.438 761.02 451.149 767.093 448.329C773.274 445.51 776.418 445.727 781.949 449.414ZM329.538 451.582C334.092 453.968 340.49 460.691 343.201 465.788C348.623 476.307 350.467 494.633 347.539 508.622C343.96 525.538 333.984 537.792 317.176 546.142C308.717 550.371 307.741 550.588 306.223 549.07C304.597 547.552 304.813 547.01 308.609 543.648C315.441 537.25 311.428 533.888 302.536 538.443C298.09 540.72 293.319 541.262 292.343 539.636C292.018 539.093 293.21 535.732 295.054 532.153C298.632 525.213 298.524 523.261 294.403 523.261C292.56 523.261 290.174 525.105 286.596 529.334C281.39 535.298 281.39 535.298 279.547 533.021C277.378 530.31 275.426 524.129 275.426 519.791C275.426 516.321 272.173 513.935 270.221 515.887C269.462 516.646 268.92 520.442 268.92 524.563C268.92 531.177 268.703 531.936 266.751 531.936C264.365 531.936 260.245 526.189 258.076 519.574C255.907 512.959 257.317 500.706 261.112 492.573C265.233 483.681 279.005 467.415 287.246 461.667C302.536 450.932 319.995 446.811 329.538 451.582ZM724.15 451.908C724.584 454.293 716.885 458.74 715.258 457.113C714.391 456.137 715.041 455.053 717.861 452.667C721.765 449.305 723.608 449.088 724.15 451.908ZM448.388 460.583C454.135 465.571 461.617 475.656 464.979 482.813C467.473 488.344 467.907 490.729 468.124 501.573C468.449 512.309 468.124 515.02 466.064 521.092C464.22 526.189 462.919 528.249 461.401 528.575C458.147 529.117 456.521 530.852 456.521 533.78C456.521 535.19 457.171 536.599 457.931 536.816C468.124 540.395 472.245 542.455 476.257 546.034C479.944 549.287 480.594 550.48 479.618 551.564C478.1 553.082 470.076 554.6 462.485 554.6C457.171 554.709 456.955 554.817 449.147 563.384C444.809 568.155 440.797 572.059 440.363 572.059C439.821 572.059 441.665 566.095 444.267 558.83C453.051 534.539 454.894 525.972 454.786 508.08C454.786 493.766 454.569 491.597 451.749 483.681C448.388 473.704 444.05 465.571 437.869 457.33L433.64 451.582L439.062 454.293C442.098 455.812 446.219 458.631 448.388 460.583ZM615.927 470.126C613.216 491.271 611.59 516.646 610.722 552.648L609.963 582.686L603.674 591.904C597.059 601.663 585.89 615.218 576.564 624.869C571.142 630.508 571.033 630.508 568.214 628.773C566.696 627.797 562.141 624.002 557.912 620.315C551.839 615.001 545.767 610.23 541.212 607.085C540.995 606.977 543.706 602.531 547.177 597.326C568.105 565.77 578.624 544.515 590.01 510.14C599.011 482.922 604.433 470.885 612.674 459.932C615.277 456.571 617.446 453.968 617.662 454.077C617.771 454.293 617.012 461.451 615.927 470.126ZM675.678 486.283C674.919 487.693 675.027 488.886 676.112 490.296C676.979 491.488 677.738 494.091 677.738 496.26C677.738 499.296 677.088 500.597 675.027 502.007C673.617 502.983 672.099 503.742 671.666 503.742C670.798 503.742 671.557 495.609 674.16 476.09L676.112 461.993L676.437 473.162C676.545 479.235 676.22 485.09 675.678 486.283ZM718.295 480.861C719.271 482.379 714.716 487.476 712.33 487.476C709.619 487.476 709.728 485.524 712.656 482.379C715.041 479.777 717.319 479.235 718.295 480.861ZM640.435 498.971C641.302 501.031 641.736 503.742 641.411 504.935C640.76 506.995 640.543 507.104 638.591 505.26C635.88 502.766 635.121 499.947 636.531 497.236C638.158 494.308 638.591 494.416 640.435 498.971ZM716.777 500.38C716.777 502.549 712.981 505.911 710.595 505.911C708.644 505.911 708.86 502.658 711.029 500.272C713.415 497.669 716.777 497.669 716.777 500.38ZM672.099 507.212C674.16 509.272 673.617 515.128 671.232 517.297C668.195 520.008 667.545 518.924 668.521 511.875C669.28 505.694 669.822 504.935 672.099 507.212ZM640.869 522.827C640.869 523.37 640.218 524.779 639.459 525.864C638.049 527.707 637.832 527.599 635.663 524.129C632.952 519.683 632.736 518.815 634.688 516.863C635.772 515.779 636.423 516.213 638.374 518.598C639.784 520.225 640.869 522.177 640.869 522.827ZM679.907 522.177C679.907 525.755 679.473 526.731 677.196 527.816C675.136 528.683 674.16 528.683 672.858 527.599C670.581 525.647 670.798 524.563 674.377 520.984C678.714 516.755 679.907 516.972 679.907 522.177ZM716.777 519.791C716.777 520.876 716.234 522.285 715.475 523.044C713.198 525.322 710.27 524.563 710.27 521.852C710.27 520.442 710.595 518.924 711.029 518.598C711.355 518.165 712.873 517.839 714.282 517.839C715.909 517.839 716.777 518.49 716.777 519.791ZM675.027 534.647C675.027 538.551 671.34 541.262 668.738 539.202C667.219 538.118 667.003 536.816 667.545 532.153L668.304 526.514L671.666 529.117C673.943 530.852 675.027 532.587 675.027 534.647ZM637.073 538.443C638.917 542.021 639.242 546.034 637.724 546.034C635.772 546.034 631.001 538.768 631.76 536.925C632.844 534.214 635.23 534.864 637.073 538.443ZM716.56 537.467C716.993 539.636 713.849 543.106 712.005 542.455C710.27 541.913 709.836 537.25 711.571 536.166C713.632 534.756 716.126 535.515 716.56 537.467ZM680.991 540.937C680.991 544.949 679.365 547.118 676.437 547.118C673.834 547.118 672.208 543.756 673.726 541.588C675.027 539.853 678.714 537.467 680.232 537.358C680.666 537.358 680.991 538.985 680.991 540.937ZM273.8 543.756C274.125 544.407 276.727 545.166 279.547 545.491C288.873 546.793 296.355 553.624 300.476 564.468C303.729 573.035 303.512 573.577 297.006 572.818C289.849 571.951 280.414 567.613 276.294 563.167C273.041 559.697 272.715 559.589 265.233 559.914C256.232 560.239 248.316 559.372 248.316 557.962C248.316 556.119 255.365 548.853 260.136 545.817C265.016 542.78 272.39 541.696 273.8 543.756ZM671.991 548.419C674.702 550.913 675.244 554.6 673.184 556.661C672.208 557.637 671.232 557.311 668.846 555.034C665.593 551.889 665.051 549.395 667.111 547.335C668.846 545.6 669.063 545.6 671.991 548.419ZM342.876 562.625C345.153 567.83 346.997 572.601 346.997 573.035C346.997 573.469 344.394 575.529 341.358 577.59C338.213 579.542 332.14 584.53 327.803 588.65C318.802 597.217 318.477 597.217 311.211 588.108C307.091 582.903 306.874 582.361 308.826 582.036C312.73 581.385 313.272 579.65 311.862 570.649C310.886 564.685 310.886 561.974 311.645 561.324C312.296 560.781 316.308 558.613 320.429 556.552C324.658 554.383 329.755 551.456 331.815 550.046L335.61 547.335L337.128 550.263C337.996 551.781 340.599 557.42 342.876 562.625ZM634.796 556.01C636.639 558.613 637.073 562.95 635.555 563.818C635.121 564.143 633.603 563.276 632.193 561.757C630.458 559.914 629.916 558.396 630.458 556.444C631.326 552.974 632.627 552.865 634.796 556.01ZM684.136 558.287C684.678 560.131 685.329 569.565 685.546 579.108L685.871 596.458L679.473 596.783C675.244 597 670.581 596.35 665.484 594.832C658.002 592.554 658.002 592.554 658.544 589.084C658.87 587.132 659.954 579.108 660.93 571.192C662.014 563.384 663.207 556.878 663.641 556.878C663.966 556.878 665.701 558.287 667.436 560.131C669.171 561.866 671.123 563.384 671.882 563.384C672.641 563.384 675.027 561.215 677.196 558.504C679.473 555.793 681.642 553.841 682.076 554.167C682.618 554.492 683.485 556.335 684.136 558.287ZM716.126 557.528C718.512 559.805 716.56 563.384 712.981 563.384C709.836 563.384 709.294 560.239 712.005 557.528C714.066 555.359 714.066 555.359 716.126 557.528ZM473.437 574.445C482.98 587.566 491.113 597.759 499.138 606.326C505.969 613.7 506.837 614.242 513.994 615.977C522.561 618.038 522.669 618.471 515.621 625.195C510.741 629.858 508.572 633.87 508.572 638.208C508.572 639.943 508.138 641.461 507.704 641.461C505.427 641.461 500.873 634.846 498.27 627.906C494.8 618.797 492.848 616.52 483.956 611.531C480.269 609.471 473.654 604.916 469.317 601.446C460.208 594.181 447.52 581.168 448.062 579.758C448.279 579.216 451.207 575.746 454.569 572.168C463.461 562.733 465.196 562.95 473.437 574.445ZM272.932 574.12C277.27 578.023 282.692 580.517 290.825 582.253C292.885 582.686 295.813 585.614 300.259 591.361C306.982 600.254 319.67 612.724 324.658 615.327C327.477 616.845 327.694 616.736 334.309 610.338C343.852 600.904 350.467 597 356.865 597C363.154 597 380.721 600.904 383.432 602.965C385.384 604.374 385.384 604.483 383.432 605.242C382.348 605.676 377.143 605.242 371.938 604.266C361.311 602.205 356.973 601.989 354.587 603.507C352.202 605.025 353.503 605.567 363.046 607.302C374.323 609.254 380.396 610.881 381.155 612.182C382.023 613.592 375.625 613.592 364.889 611.965C360.118 611.314 354.696 611.098 352.961 611.531C350.033 612.29 349.924 612.507 351.551 613.7C352.635 614.459 356.973 615.652 361.202 616.411C370.853 618.038 373.673 619.339 371.829 621.508C370.962 622.592 367.925 623.026 360.66 623.026C350.792 623.026 350.792 623.134 343.31 627.906C337.02 632.026 334.96 632.786 330.514 632.786C323.79 632.786 313.814 628.882 300.91 621.399C273.8 605.459 255.907 588.542 254.064 577.047C253.088 570.758 253.955 569.89 261.437 569.89C267.619 569.89 268.378 570.216 272.932 574.12ZM633.712 578.349C630.675 583.12 626.446 579.758 628.832 574.553L630.133 571.734L632.519 574.011C634.362 575.963 634.579 576.831 633.712 578.349ZM717.644 577.698C717.861 579.758 717.427 580.734 715.801 581.277C712.873 582.144 711.355 581.168 711.355 578.132C711.355 574.987 712.33 574.011 715.15 574.445C716.56 574.662 717.427 575.746 717.644 577.698ZM399.807 580.084C422.904 580.084 423.88 580.192 424.423 582.144C425.399 586.156 423.23 588.108 416.723 589.084C407.398 590.277 388.963 590.06 377.902 588.434C364.564 586.482 363.263 585.831 363.263 581.819V578.566L369.552 579.325C372.914 579.867 386.577 580.192 399.807 580.084ZM452.509 600.579C464.437 612.507 472.353 618.905 482.329 624.327C484.715 625.52 486.884 628.556 489.595 634.087C492.957 640.81 496.101 644.389 509.765 657.944C527.332 675.185 526.248 674.535 538.718 674.101C541.755 673.993 563.985 652.63 567.889 646.015C569.84 642.762 571.25 641.461 573.094 641.461C575.805 641.461 581.986 635.28 598.577 615.869L608.337 604.591V615.977V627.472L612.24 629.749C616.903 632.46 617.229 627.364 609.096 673.45C594.89 752.828 592.071 779.722 595.974 799.783C597.059 805.422 597.926 814.314 598.035 819.519C598.035 826.676 598.469 829.387 599.77 830.688C602.698 833.616 621.566 836.869 636.206 837.086L649.544 837.195V840.123C649.544 842.725 649.11 842.942 643.363 843.701C637.615 844.352 612.457 842.834 604.433 841.424C602.372 841.098 600.746 841.315 599.987 842.291C599.228 843.159 598.36 858.666 597.493 883.282C596.3 921.236 595.541 929.694 593.047 934.574C589.468 941.188 578.407 950.731 564.31 959.19C554.008 965.479 549.888 969.6 548.478 975.239C547.393 979.685 544.357 983.046 541.321 983.046C540.453 983.046 530.477 974.046 519.091 963.202C507.596 952.249 487.751 933.489 474.956 921.561C462.16 909.524 450.123 898.138 448.279 896.186L444.809 892.499L446.327 881.221C448.496 864.955 447.412 866.257 459.123 865.714C467.907 865.281 470.076 864.738 474.522 862.027C486.776 854.545 485.583 854.979 496.21 855.738C509.114 856.605 512.801 855.413 521.259 847.388C524.946 843.809 528.308 840.99 528.85 840.99C533.296 840.882 545.116 838.496 547.61 837.195C554.334 833.725 554.55 832.206 550.43 815.94C542.514 784.927 529.392 745.129 519.958 723.116C509.656 699.584 495.342 673.017 475.498 640.376C463.136 620.315 454.894 609.254 444.376 598.519C436.568 590.602 434.724 587.241 438.194 587.241C438.845 587.241 445.243 593.205 452.509 600.579ZM433.857 602.097C449.906 620.206 471.16 662.064 497.945 728.104C503.692 742.527 505.21 747.732 503.584 747.732C503.258 747.732 499.68 745.78 495.668 743.394C491.655 741.008 487.643 739.057 486.667 739.057C484.715 739.057 473.654 762.263 474.522 764.54C475.389 766.817 493.39 778.203 496.318 778.42C498.812 778.637 499.463 777.77 502.174 771.155C505.21 763.672 507.921 759.769 509.223 760.961C509.548 761.395 510.09 763.564 510.307 765.841C510.741 769.203 509.873 771.697 505.644 779.722C502.716 785.035 499.897 789.481 499.355 789.698C498.704 789.915 493.173 787.095 486.884 783.517C480.594 779.938 474.956 777.011 474.305 777.011C473.654 777.011 468.775 782.433 463.569 788.939L454.027 800.867L449.038 797.939C446.327 796.313 441.122 792.843 437.544 790.24C433.965 787.638 429.628 784.71 428.001 783.842C424.314 781.999 423.664 782.324 413.036 791.541C409.241 794.903 404.144 799.024 401.65 800.759L397.204 804.012L385.276 792.626C378.661 786.445 372.263 781.348 371.179 781.348C370.094 781.348 363.154 785.252 355.672 790.132L342.225 798.915L338.864 794.686C337.128 792.409 333.442 788.18 330.731 785.252L325.851 779.938L325.2 783.083C324.766 784.818 324.441 788.397 324.333 790.999C324.224 795.337 324.766 796.313 331.381 803.687C335.393 808.133 339.406 811.711 340.382 811.711C342.334 811.711 346.454 809.326 360.009 800.542C371.504 793.06 370.311 792.734 384.734 806.398C391.457 812.904 395.578 816.049 397.313 816.049C400.349 816.049 405.771 812.253 416.94 802.169L425.507 794.469L432.013 799.674C440.689 806.506 450.123 812.47 453.701 813.446C457.28 814.314 458.581 813.229 466.064 803.036C469.317 798.59 472.895 793.819 474.088 792.626L476.148 790.24L487.643 796.204C503.584 804.446 504.451 804.229 510.741 791.65L515.512 781.89L516.38 786.77C518.982 802.169 519.199 800.867 512.91 807.699C509.765 811.061 506.186 814.205 504.777 814.531C501.415 815.398 489.703 812.253 483.739 808.892C480.378 807.048 478.643 806.615 478.317 807.482C477.558 809.759 468.991 819.627 464.871 822.989C461.184 825.917 459.882 826.351 453.918 826.351C448.171 826.351 446.327 825.808 440.905 822.555C437.435 820.495 432.664 817.133 430.387 815.181L426.158 811.494L419.977 817.133C402.626 832.966 391.24 833.074 375.191 817.567C371.179 813.663 367.492 810.952 367.166 811.603C365.757 813.772 348.406 823.531 343.526 824.833C339.623 825.917 337.562 825.917 334.201 824.941C328.779 823.314 321.188 817.459 317.501 812.145L314.573 807.916L318.26 780.806C326.501 721.489 329.971 704.031 340.49 669.113C346.78 648.184 351.009 636.581 353.069 634.846C353.828 634.195 358.274 633.219 362.937 632.677C378.661 630.834 388.529 623.46 390.264 612.29C391.674 603.507 393.734 602.097 406.422 601.121C412.169 600.796 418.892 599.711 421.278 598.735C427.893 596.35 428.869 596.567 433.857 602.097ZM674.81 609.471C679.582 610.122 679.907 610.338 679.907 613.266C679.907 617.929 677.413 619.773 670.798 619.773C667.653 619.773 662.773 619.447 659.954 619.122C655.4 618.471 654.966 618.146 654.966 615.435C654.966 613.809 655.291 610.989 655.616 609.254L656.267 606.001L662.882 607.411C666.569 608.278 671.882 609.146 674.81 609.471ZM551.406 628.556C561.057 637.774 561.382 639.509 555.093 646.34C549.996 651.871 548.695 652.305 548.695 648.618C548.695 641.678 542.839 632.786 538.284 632.786C536.983 632.786 533.296 634.846 530.26 637.34C521.693 644.28 521.802 644.28 520.392 642.87C518.006 640.485 520.609 635.497 528.2 628.123C538.61 618.146 540.453 618.146 551.406 628.556ZM541.104 649.051C543.056 656.1 541.863 666.402 539.044 666.402C538.501 666.402 537.2 663.582 536.224 660.112C535.248 656.751 533.405 652.847 532.103 651.437L529.826 649.051L533.513 645.148C536.983 641.678 537.417 641.569 538.61 643.304C539.369 644.28 540.562 646.883 541.104 649.051ZM526.79 656.968C531.453 661.522 532.32 663.474 530.151 664.884C528.959 665.643 515.078 651.871 515.078 649.919C515.078 648.292 522.018 652.413 526.79 656.968ZM776.635 670.414C780.105 671.39 783.359 672.691 784.009 673.45C784.66 674.21 785.419 678.981 785.744 683.969C786.72 697.633 781.407 720.513 778.045 717.152C777.72 716.826 778.153 713.465 779.129 709.669C780.973 701.428 781.19 696.114 779.563 695.03C777.503 693.837 776.31 696.223 774.25 705.874C771.972 716.284 768.502 724.959 766.659 724.959C766.008 724.959 765.683 724.092 766.008 723.007C769.804 710.754 770.888 699.584 768.394 698.609C766.008 697.633 764.924 699.801 763.08 709.344C760.695 721.381 758.743 726.044 755.815 726.044C753.755 726.044 753.538 725.61 754.08 721.923C758.417 691.777 758.526 690.367 756.466 688.307C754.73 686.572 754.514 686.572 753.104 688.524C752.236 689.608 750.827 694.271 749.851 698.825C747.899 708.26 747.031 710.212 744.754 710.645C742.368 711.079 742.043 708.477 742.802 696.765C743.67 685.162 746.597 677.463 752.887 670.956C756.14 667.595 756.357 667.486 763.406 668.137C767.309 668.462 773.274 669.547 776.635 670.414ZM670.473 684.837C673.726 686.029 677.196 687.981 678.172 689.066C679.582 690.584 681.208 698.934 684.353 720.188C693.896 785.903 698.342 805.096 707.559 821.471C710.595 827.001 710.921 830.038 708.752 834.267C704.957 841.641 654.966 886.752 654.966 882.848C654.966 882.631 656.159 876.45 657.677 869.184C659.195 861.811 660.605 850.641 660.93 844.352C661.255 838.062 662.014 830.038 662.665 826.568C663.641 821.905 663.641 818.326 662.557 812.037C661.038 802.385 661.581 797.723 665.918 783.625C667.762 777.878 671.557 764.974 674.485 754.997L679.907 736.671L678.172 724.092C677.304 717.043 675.895 707.934 675.027 703.814C674.16 699.584 673.401 695.898 673.401 695.464C673.401 695.03 671.232 691.994 668.521 688.632C665.81 685.379 663.858 682.668 664.183 682.668C664.4 682.668 667.328 683.644 670.473 684.837ZM494.041 754.347C498.379 756.949 498.379 756.949 495.776 762.154L493.824 766.167L489.812 763.456C485.257 760.311 485.149 759.769 487.426 755.323C489.378 751.419 489.378 751.419 494.041 754.347ZM765.574 844.135C765.574 847.063 765.249 847.28 758.851 848.581C755.056 849.231 745.188 850.099 736.946 850.424C723.174 850.967 721.656 850.858 720.355 849.015C719.596 847.93 718.945 846.304 718.945 845.436C718.945 843.918 721.331 843.701 735.537 843.484C744.537 843.484 754.514 842.834 757.441 842.291C765.574 840.665 765.574 840.665 765.574 844.135ZM331.273 863.871C335.393 864.955 340.599 865.931 342.767 865.931C344.828 865.931 346.888 866.257 347.322 866.582C348.189 867.449 345.912 873.63 343.852 876.125C341.683 878.619 334.201 877.968 324.007 874.281C317.392 871.895 317.176 871.679 317.501 868.208C317.826 863.112 319.67 860.184 321.838 861.051C322.814 861.377 327.044 862.678 331.273 863.871Z" fill="#000E88"/>
<path d="M753.321 250.427C738.465 255.74 730.332 269.187 730.332 288.489C730.332 300.309 731.85 303.562 737.922 304.538C743.127 305.406 743.778 305.08 748.441 298.357C753.429 291.2 759.719 287.621 764.815 289.14C769.153 290.332 774.467 296.297 776.418 302.044C778.045 306.924 779.129 307.466 780.105 303.887C782.383 295.321 779.346 283.934 773.599 279.38C769.804 276.344 764.273 276.669 757.008 280.248C750.61 283.284 750.393 283.175 754.839 278.621C759.936 273.199 766.876 270.163 771.972 271.139C780.648 272.765 785.527 278.079 790.624 291.634L793.01 298.032L794.42 295.212C795.287 293.694 796.263 289.465 796.588 285.886C798.215 270.922 789.54 256.282 776.093 251.294C768.936 248.583 759.61 248.258 753.321 250.427Z" fill="#5EC21B"/>
<path d="M671.123 269.187C665.918 271.898 658.219 279.814 658.219 282.525C658.219 282.958 662.014 284.26 666.677 285.236C671.232 286.32 685.654 290.007 698.558 293.477C711.463 297.056 722.524 299.875 723.174 299.875C723.825 299.875 724.15 296.73 724.042 291.959C723.933 287.73 724.259 282.308 724.692 280.139L725.56 276.127L715.475 272.982C704.956 269.62 687.714 266.259 680.991 266.259C678.822 266.259 674.376 267.56 671.123 269.187Z" fill="#000E88"/>
<path d="M651.062 334.793C650.628 335.443 651.387 336.961 653.014 338.263C654.532 339.564 656.05 341.407 656.375 342.492C657.46 345.528 660.279 345.962 662.99 343.359C664.4 341.95 666.786 341.082 668.954 341.082C672.099 341.082 672.424 340.865 671.123 339.347C667.219 334.684 653.122 331.431 651.062 334.793Z" fill="#13194E"/>
<path d="M427.351 355.179C420.194 356.914 415.206 362.77 420.194 363.638C421.387 363.855 423.23 364.831 424.206 365.698C425.941 367.216 426.483 366.891 431.038 362.445C436.351 357.131 436.894 355.83 434.183 354.746C432.231 353.987 432.339 353.987 427.351 355.179Z" fill="#13194E"/>
<path d="M340.924 749.467C332.032 755.431 327.477 759.769 327.477 762.263C327.477 763.564 329.971 768.335 333.007 772.781C339.839 782.649 342.55 785.686 344.827 785.686C345.695 785.686 349.924 783.3 354.045 780.372C365.756 772.131 367.6 770.504 367.6 768.444C367.6 766.167 361.744 757.925 355.238 751.202C350.033 745.78 346.996 745.346 340.924 749.467ZM351.225 761.721C353.069 763.998 354.587 766.167 354.587 766.492C354.587 766.709 352.635 768.335 350.141 770.07C346.454 772.565 345.587 772.781 344.719 771.48C340.815 765.624 339.189 762.805 339.514 762.48C339.731 762.371 341.357 761.178 343.092 759.877C344.827 758.576 346.562 757.491 347.105 757.491C347.538 757.491 349.382 759.443 351.225 761.721Z" fill="#D12020"/>
<path d="M439.496 755.539C430.712 767.359 429.411 769.311 429.411 770.938C429.411 772.673 444.809 784.818 449.906 787.204C452.183 788.18 452.834 787.855 455.653 784.601C457.388 782.541 461.292 777.444 464.22 773.324C470.292 764.648 470.618 765.624 458.906 756.19C448.279 747.732 445.46 747.623 439.496 755.539ZM452.942 763.022L456.412 766.492L453.159 771.263L449.906 776.035L445.568 772.565C443.074 770.613 441.664 768.661 442.098 768.01C443.399 765.733 448.388 759.66 448.93 759.66C449.147 759.66 450.99 761.178 452.942 763.022Z" fill="#D12020"/>
<path d="M394.168 753.371C389.722 755.756 378.444 767.793 378.444 769.962C378.444 772.348 396.553 791.108 398.831 791.108C399.373 791.108 404.578 786.879 410.325 781.565C417.157 775.384 420.735 771.372 420.735 769.853C420.735 768.227 417.808 765.082 411.518 759.769C402.084 751.852 398.939 750.66 394.168 753.371ZM403.819 765.841L408.265 769.962L403.71 774.191L399.047 778.312L395.144 775.384C389.613 771.155 389.396 769.637 393.951 765.407C396.12 763.455 398.288 761.829 398.614 761.829C399.047 761.829 401.325 763.672 403.819 765.841Z" fill="#000E88"/>
</svg>
